<?xml version="1.0" encoding="iso-8859-1"?>
<!-- Generator: Adobe Illustrator 19.1.0, SVG Export Plug-In . SVG Version: 6.00 Build 0)  -->
<svg version="1.1" id="Capa_1" xmlns="http://www.w3.org/2000/svg" xmlns:xlink="http://www.w3.org/1999/xlink" x="0px" y="0px"
	 viewBox="0 0 484 484" style="enable-background:new 0 0 484 484;" xml:space="preserve">
<g>
	<g>
		<path d="M438.1,196.1c-19.9,0-36.8,12.7-43.2,30.4h-42.3c-2.7-19.4-10.4-37.2-21.8-52.1l29.8-29.8c17.1,8.3,38.3,5.4,52.6-8.8
			c17.9-17.9,17.9-47,0-64.9s-47-17.9-64.9,0c-14.1,14.1-17,35-9,52l-30,30c-14.8-11.2-32.4-18.7-51.6-21.4V89.2
			c17.7-6.4,30.4-23.3,30.4-43.2c0-25.4-20.6-45.9-45.9-45.9c-25.4,0-45.9,20.6-45.9,45.9c0,20.1,12.9,37.2,30.9,43.4v42.1
			c-18.9,2.6-36.9,10-52.2,21.5l-30-30c8-17,5-37.9-9-52c-17.9-17.9-47-17.9-64.9,0s-17.9,47,0,64.9c14.2,14.2,35.4,17.1,52.6,8.8
			l29.7,29.7c-11.6,15.3-19,33.2-21.6,52.1H89.4c-6.4-17.7-23.3-30.4-43.2-30.4C20.6,196.1,0,216.6,0,242s20.6,45.9,45.9,45.9
			c20.1,0,37.2-12.9,43.4-30.9h42.1c2.6,19.4,10.2,37.3,21.5,52.2l-30,30c-17-8-37.9-5-52,9c-17.9,17.9-17.9,47,0,64.9
			s47,17.9,64.9,0c14.2-14.2,17.1-35.4,8.8-52.6l29.8-29.8c15,11.5,33,19.2,52.6,21.8v42.1c-18,6.2-30.9,23.3-30.9,43.4
			c0,25.4,20.6,45.9,45.9,45.9c25.4,0,45.9-20.6,45.9-45.9c0-19.9-12.7-36.8-30.4-43.2v-42.3c19.4-2.7,37.2-10.4,52.1-21.8
			l29.8,29.8c-8.3,17.1-5.4,38.3,8.8,52.6c17.9,17.9,47,17.9,64.9,0s17.9-47,0-64.9c-14.1-14.1-35-17.1-52-9l-30-30
			c11.3-14.9,18.9-32.8,21.5-52.2h42.1c6.2,18,23.3,30.9,43.4,30.9c25.4,0,45.9-20.6,45.9-45.9C484,216.6,463.4,196.1,438.1,196.1z
			 M368.9,91.6c6.5-6.5,17-6.5,23.5,0s6.5,17,0,23.5c-6.5,6.5-17,6.5-23.5,0C362.4,108.6,362.4,98.1,368.9,91.6z M115.1,115.1
			c-6.5,6.5-17,6.5-23.5,0s-6.5-17,0-23.5s17-6.5,23.5,0C121.6,98.1,121.6,108.6,115.1,115.1z M45.9,258.6
			c-9.2,0-16.6-7.4-16.6-16.6c0-9.2,7.4-16.6,16.6-16.6s16.6,7.4,16.6,16.6S55.1,258.6,45.9,258.6z M115.1,392.4
			c-6.5,6.5-17,6.5-23.5,0s-6.5-17,0-23.5s17-6.5,23.5,0S121.6,385.9,115.1,392.4z M225.4,45.9c0-9.2,7.4-16.6,16.6-16.6
			s16.6,7.4,16.6,16.6s-7.4,16.6-16.6,16.6C232.8,62.5,225.4,55.1,225.4,45.9z M258.6,438.1c0,9.2-7.4,16.6-16.6,16.6
			c-9.2,0-16.6-7.4-16.6-16.6s7.4-16.6,16.6-16.6S258.6,428.9,258.6,438.1z M242,323.7c-45,0-81.7-36.6-81.7-81.7
			c0-20.8,7.8-40.6,22.1-55.8c15.6-16.7,36.8-25.9,59.6-25.9c45,0,81.7,36.6,81.7,81.7C323.7,287,287,323.7,242,323.7z M368.9,368.9
			c6.5-6.5,17-6.5,23.5,0s6.5,17,0,23.5s-17,6.5-23.5,0S362.4,375.4,368.9,368.9z M438.1,258.6c-9.2,0-16.6-7.4-16.6-16.6
			c0-9.2,7.4-16.6,16.6-16.6s16.6,7.4,16.6,16.6S447.2,258.6,438.1,258.6z"/>
		<path d="M259.8,236.2c-5-2.8-10.4-4.9-15.7-7.1c-3.1-1.3-6-2.8-8.6-4.8c-5.1-4.1-4.1-10.7,1.9-13.3c1.7-0.7,3.5-1,5.3-1.1
			c6.9-0.4,13.5,0.9,19.8,3.9c3.1,1.5,4.2,1,5.2-2.2c1.1-3.4,2-6.9,3.1-10.4c0.7-2.3-0.2-3.9-2.4-4.8c-4-1.8-8.1-3-12.5-3.7
			c-5.7-0.9-5.7-0.9-5.7-6.6c0-8,0-8-8.1-8c-1.2,0-2.3,0-3.5,0c-3.8,0.1-4.4,0.8-4.5,4.5c0,1.7,0,3.4,0,5.1c0,5-0.1,5-4.9,6.7
			c-11.6,4.2-18.8,12.2-19.6,24.9c-0.7,11.2,5.2,18.8,14.4,24.4c5.7,3.4,12,5.4,18,8.1c2.4,1,4.6,2.2,6.6,3.9
			c5.8,4.8,4.7,12.8-2.1,15.8c-3.7,1.6-7.6,2-11.5,1.5c-6.2-0.8-12.1-2.4-17.6-5.3c-3.2-1.7-4.2-1.3-5.3,2.3c-1,3-1.8,6.1-2.6,9.2
			c-1.1,4.1-0.7,5.1,3.2,7c5,2.4,10.4,3.7,15.9,4.5c4.3,0.7,4.4,0.9,4.5,5.3c0,2,0,4,0.1,6.1c0,2.5,1.3,4,3.9,4.1
			c3,0.1,5.9,0.1,8.9,0c2.4-0.1,3.7-1.4,3.7-3.8c0-2.8,0.1-5.5,0-8.3s1.1-4.2,3.8-5c6.2-1.7,11.5-5,15.6-10
			C280.1,265.2,275.8,245,259.8,236.2z"/>
	</g>
</g>
<g>
</g>
<g>
</g>
<g>
</g>
<g>
</g>
<g>
</g>
<g>
</g>
<g>
</g>
<g>
</g>
<g>
</g>
<g>
</g>
<g>
</g>
<g>
</g>
<g>
</g>
<g>
</g>
<g>
</g>
</svg>
